<?xml version="1.0" encoding="us-ascii" standalone="no"?><svg xmlns="http://www.w3.org/2000/svg" xmlns:xlink="http://www.w3.org/1999/xlink" contentStyleType="text/css" height="426px" preserveAspectRatio="none" style="width:366px;height:426px;background:#FFFFFF;" version="1.1" viewBox="0 0 366 426" width="366px" zoomAndPan="magnify"><defs/><g><!--class CONVEYOR--><g id="elem_CONVEYOR"><rect codeLine="1" fill="#F1F1F1" height="96.8906" id="CONVEYOR" rx="2.5" ry="2.5" style="stroke:#181818;stroke-width:0.5;" width="218" x="141" y="7"/><ellipse cx="206.25" cy="23" fill="#ADD1B2" rx="11" ry="11" style="stroke:#181818;stroke-width:1.0;"/><path d="M210.3594,29 L202.6406,29 L202.6406,16.6094 L210.3594,16.6094 L210.3594,18.7656 L205.0938,18.7656 L205.0938,21.4375 L209.8594,21.4375 L209.8594,23.5938 L205.0938,23.5938 L205.0938,26.8438 L210.3594,26.8438 L210.3594,29 Z " fill="#000000"/><text fill="#000000" font-family="sans-serif" font-size="14" lengthAdjust="spacing" textLength="79" x="226.75" y="27.8467">CONVEYOR</text><line style="stroke:#181818;stroke-width:0.5;" x1="142" x2="358" y1="39" y2="39"/><ellipse cx="152" cy="52.6484" fill="#000000" rx="3" ry="3" style="stroke:#000000;stroke-width:1.0;"/><text fill="#000000" font-family="sans-serif" font-size="14" lengthAdjust="spacing" textLength="42" x="161" y="55.9951">id : int</text><text fill="#000000" font-family="sans-serif" font-size="14" lengthAdjust="spacing" textLength="95" x="161" y="72.292">status : string</text><text fill="#000000" font-family="sans-serif" font-size="14" lengthAdjust="spacing" textLength="192" x="161" y="88.5889">nextScheduledRepair : date</text><line style="stroke:#181818;stroke-width:0.5;" x1="142" x2="358" y1="95.8906" y2="95.8906"/></g><!--class WAREHOUSE--><g id="elem_WAREHOUSE"><rect codeLine="7" fill="#F1F1F1" height="80.5938" id="WAREHOUSE" rx="2.5" ry="2.5" style="stroke:#181818;stroke-width:0.5;" width="218" x="7" y="180.89"/><ellipse cx="66.75" cy="196.89" fill="#ADD1B2" rx="11" ry="11" style="stroke:#181818;stroke-width:1.0;"/><path d="M70.8594,202.89 L63.1406,202.89 L63.1406,190.4994 L70.8594,190.4994 L70.8594,192.6556 L65.5938,192.6556 L65.5938,195.3275 L70.3594,195.3275 L70.3594,197.4838 L65.5938,197.4838 L65.5938,200.7338 L70.8594,200.7338 L70.8594,202.89 Z " fill="#000000"/><text fill="#000000" font-family="sans-serif" font-size="14" lengthAdjust="spacing" textLength="90" x="87.25" y="201.7367">WAREHOUSE</text><line style="stroke:#181818;stroke-width:0.5;" x1="8" x2="224" y1="212.89" y2="212.89"/><ellipse cx="18" cy="226.5384" fill="#000000" rx="3" ry="3" style="stroke:#000000;stroke-width:1.0;"/><text fill="#000000" font-family="sans-serif" font-size="14" lengthAdjust="spacing" textLength="42" x="27" y="229.8851">id : int</text><text fill="#000000" font-family="sans-serif" font-size="14" lengthAdjust="spacing" textLength="192" x="27" y="246.182">surplusProductQuantity : int</text><line style="stroke:#181818;stroke-width:0.5;" x1="8" x2="224" y1="253.4838" y2="253.4838"/></g><!--class PRODUCT--><g id="elem_PRODUCT"><rect codeLine="12" fill="#F1F1F1" height="80.5938" id="PRODUCT" rx="2.5" ry="2.5" style="stroke:#181818;stroke-width:0.5;" width="117" x="146.5" y="338.49"/><ellipse cx="168.25" cy="354.49" fill="#ADD1B2" rx="11" ry="11" style="stroke:#181818;stroke-width:1.0;"/><path d="M172.3594,360.49 L164.6406,360.49 L164.6406,348.0994 L172.3594,348.0994 L172.3594,350.2556 L167.0938,350.2556 L167.0938,352.9275 L171.8594,352.9275 L171.8594,355.0837 L167.0938,355.0837 L167.0938,358.3337 L172.3594,358.3337 L172.3594,360.49 Z " fill="#000000"/><text fill="#000000" font-family="sans-serif" font-size="14" lengthAdjust="spacing" textLength="70" x="183.75" y="359.3367">PRODUCT</text><line style="stroke:#181818;stroke-width:0.5;" x1="147.5" x2="262.5" y1="370.49" y2="370.49"/><ellipse cx="157.5" cy="384.1384" fill="#000000" rx="3" ry="3" style="stroke:#000000;stroke-width:1.0;"/><text fill="#000000" font-family="sans-serif" font-size="14" lengthAdjust="spacing" textLength="42" x="166.5" y="387.4851">id : int</text><text fill="#000000" font-family="sans-serif" font-size="14" lengthAdjust="spacing" textLength="91" x="166.5" y="403.782">name : string</text><line style="stroke:#181818;stroke-width:0.5;" x1="147.5" x2="262.5" y1="411.0837" y2="411.0837"/></g><!--link CONVEYOR to PRODUCT--><g id="link_CONVEYOR_PRODUCT"><path codeLine="17" d="M254.0622,112.3355 C254.6522,122.1055 254.69,124.33 255,133.89 C256.84,190.82 254.98,205.8 243,261.49 C237.39,287.55 234.2224,299.0652 226.2524,321.3052 " fill="none" id="CONVEYOR-PRODUCT" style="stroke:#181818;stroke-width:1.0;"/><line style="stroke:#181818;stroke-width:1.0;" x1="249.8284" x2="257.8138" y1="108.5838" y2="108.1016"/><line style="stroke:#181818;stroke-width:1.0;" x1="250.0092" x2="257.9947" y1="111.5784" y2="111.0962"/><line style="stroke:#181818;stroke-width:1.0;" x1="254.0622" x2="253.58" y1="112.3355" y2="104.35"/><line style="stroke:#181818;stroke-width:1.0;" x1="222.8788" x2="225.8283" y1="330.719" y2="340.2741"/><line style="stroke:#181818;stroke-width:1.0;" x1="222.8788" x2="214.5317" y1="330.719" y2="336.2259"/><line style="stroke:#181818;stroke-width:1.0;" x1="222.8788" x2="220.18" y1="330.719" y2="338.25"/><ellipse cx="224.903" cy="325.0707" fill="none" rx="4" ry="4" style="stroke:#181818;stroke-width:1.0;"/><text fill="#000000" font-family="sans-serif" font-size="13" lengthAdjust="spacing" textLength="65" x="256" y="225.7569">processes</text></g><!--link WAREHOUSE to PRODUCT--><g id="link_WAREHOUSE_PRODUCT"><path codeLine="18" d="M142.662,268.7943 C156.052,292.2043 160.0352,299.1641 173.4152,322.5641 " fill="none" id="WAREHOUSE-PRODUCT" style="stroke:#181818;stroke-width:1.0;"/><line style="stroke:#181818;stroke-width:1.0;" x1="137.2038" x2="144.1481" y1="267.3081" y2="263.3362"/><line style="stroke:#181818;stroke-width:1.0;" x1="138.6933" x2="145.6376" y1="269.9123" y2="265.9403"/><line style="stroke:#181818;stroke-width:1.0;" x1="142.662" x2="138.69" y1="268.7943" y2="261.85"/><line style="stroke:#181818;stroke-width:1.0;" x1="178.379" x2="187.5586" y1="331.2452" y2="335.2117"/><line style="stroke:#181818;stroke-width:1.0;" x1="178.379" x2="177.1414" y1="331.2452" y2="341.1683"/><line style="stroke:#181818;stroke-width:1.0;" x1="178.379" x2="182.35" y1="331.2452" y2="338.19"/><ellipse cx="175.4007" cy="326.0365" fill="none" rx="4" ry="4" style="stroke:#181818;stroke-width:1.0;"/><text fill="#000000" font-family="sans-serif" font-size="13" lengthAdjust="spacing" textLength="40" x="165" y="304.5569">stores</text></g><!--link CONVEYOR to WAREHOUSE--><g id="link_CONVEYOR_WAREHOUSE"><path codeLine="19" d="M205.814,110.4415 C185.964,134.7015 172.2672,151.4394 153.4572,174.4194 " fill="none" id="CONVEYOR-WAREHOUSE" style="stroke:#181818;stroke-width:1.0;stroke-dasharray:7.0,7.0;"/><line style="stroke:#181818;stroke-width:1.0;" x1="205.814" x2="206.2363" y1="110.4415" y2="100.4505"/><line style="stroke:#181818;stroke-width:1.0;" x1="205.814" x2="215.5237" y1="110.4415" y2="108.0495"/><line style="stroke:#181818;stroke-width:1.0;" x1="205.814" x2="210.88" y1="110.4415" y2="104.25"/><line style="stroke:#181818;stroke-width:1.0;" x1="201.4517" x2="207.6432" y1="109.4564" y2="114.5225"/><line style="stroke:#181818;stroke-width:1.0;" x1="153.4572" x2="153.0329" y1="174.4194" y2="184.4104"/><line style="stroke:#181818;stroke-width:1.0;" x1="153.4572" x2="143.7471" y1="174.4194" y2="176.8096"/><line style="stroke:#181818;stroke-width:1.0;" x1="153.4572" x2="148.39" y1="174.4194" y2="180.61"/><line style="stroke:#181818;stroke-width:1.0;" x1="157.8193" x2="151.6287" y1="175.4054" y2="170.3382"/><text fill="#000000" font-family="sans-serif" font-size="13" lengthAdjust="spacing" textLength="62" x="184" y="146.9569">evaluates</text></g><!--SRC=[POzF2u904CNl-oa6Zu5-06zHGgSq-qV7nHrgmLRPcOr2- -ujQYfucpSpxyTxQ5Zp1u9DkhyajpGFG1By1JG2OAKLnA0D-vbOiYClYQqsTxyn-EPZyK3bIbGvrb9RVrQIKNo5m85-NUV9BZqVamu_gYNVsRfqbDbAkO8FJlR-_ZpZPNcwFMzE7MsO5omZdpWbzUQnLTk6OTMCnXXgMnL8X2IcQ8iduihwZv7oRQEeRMPbOi2NB9slJZy0]--></g></svg>